<svg xmlns="http://www.w3.org/2000/svg" class="railroad" width="347" height="340" viewBox="0 0 347 340"><style>svg.railroad{background:#fff;font-family:monospace;font-size:13px}.rr-line{stroke:#334;stroke-width:2;fill:none}.rr-cap{fill:#334}.rr-term{fill:#e8f0ff;stroke:#334;stroke-width:2}.rr-nonterm{fill:#fff7e8;stroke:#334;stroke-width:2}.rr-label{fill:#111;text-anchor:middle;dominant-baseline:middle}.rr-comment{fill:#666;font-style:italic;text-anchor:middle;dominant-baseline:middle}.rr-title{fill:#113;font-weight:bold;font-size:15px}.rr-legend{fill:#333;font-size:12px}.rr-legend-tok{fill:#113;font-weight:bold}a:hover .rr-nonterm{fill:#ffe6b3;cursor:pointer}</style><g><g id="val"><text class="rr-title" x="16" y="31">val</text><circle class="rr-cap" cx="38" cy="42" r="3"/><path class="rr-line" d="M38 42V56"/><a href="#add"><rect class="rr-nonterm" x="16" y="56" width="44" height="26" rx="4" ry="4"/><text class="rr-label" x="38" y="69">add</text></a><path class="rr-line" d="M38 82V96"/><circle class="rr-cap" cx="38" cy="96" r="3"/></g><g id="add"><text class="rr-title" x="16" y="145">add</text><circle class="rr-cap" cx="34" cy="156" r="3"/><path class="rr-line" d="M34 156V170"/><path class="rr-line" d="M34 170V188"/><rect class="rr-term" x="16" y="188" width="36" height="26" rx="13" ry="13"/><text class="rr-label" x="34" y="201">NR</text><path class="rr-line" d="M34 214V232"/><path class="rr-line" d="M34 223H77"/><path class="rr-line" d="M34 179H77"/><path class="rr-line" d="M77 214V223"/><path class="rr-line" d="M77 179V188"/><rect class="rr-term" x="62" y="188" width="30" height="26" rx="13" ry="13"/><text class="rr-label" x="77" y="201">+</text><path class="rr-line" d="M34 232V246"/><circle class="rr-cap" cx="34" cy="246" r="3"/></g><text class="rr-title" x="16" y="295">Tokens</text><text class="rr-legend" x="16" y="317"><tspan class="rr-legend-tok">NR</tspan>  —  number literal (e.g. 42, -1.5, 1e3)</text></g></svg>